<svg width="1200" height="1500" viewBox="0 0 1200 1500" fill="none" xmlns="http://www.w3.org/2000/svg">
  <rect width="1200" height="1500" fill="#FFFFFF"/>
  <rect x="58" y="58" width="1084" height="1384" fill="#FBFDFF" stroke="#D8E2EF" stroke-width="4"/>
  <path d="M168 312C168 260.085 210.085 218 262 218H938C989.915 218 1032 260.085 1032 312V440C1032 491.915 989.915 534 938 534H262C210.085 534 168 491.915 168 440V312Z" fill="#10233A"/>
  <circle cx="280" cy="376" r="46" fill="#D1A85A"/>
  <circle cx="280" cy="376" r="20" fill="#FFF7E7"/>
  <rect x="354" y="334" width="214" height="20" rx="10" fill="#FFFFFF"/>
  <rect x="354" y="374" width="294" height="16" rx="8" fill="#6D8098"/>
  <rect x="354" y="408" width="224" height="16" rx="8" fill="#6D8098"/>
  <rect x="812" y="332" width="126" height="88" rx="44" fill="#1E3858"/>
  <path d="M846 376L874 404L916 348" stroke="#D1A85A" stroke-width="12" stroke-linecap="round" stroke-linejoin="round"/>
  <path d="M180 708C180 661.608 217.608 624 264 624H936C982.392 624 1020 661.608 1020 708V1186H180V708Z" fill="#EEF4FB"/>
  <path d="M180 1186H1020" stroke="#10233A" stroke-width="8"/>
  <rect x="238" y="700" width="196" height="426" rx="10" fill="#16314D"/>
  <rect x="304" y="772" width="64" height="220" rx="32" fill="#FFF8EB"/>
  <rect x="274" y="1018" width="124" height="26" rx="13" fill="#D1A85A"/>
  <rect x="502" y="746" width="196" height="380" rx="10" fill="#FFFFFF"/>
  <rect x="556" y="800" width="88" height="132" rx="20" fill="#10233A"/>
  <rect x="540" y="958" width="120" height="28" rx="14" fill="#D1A85A"/>
  <rect x="534" y="1012" width="132" height="12" rx="6" fill="#BBC8D8"/>
  <rect x="766" y="700" width="196" height="426" rx="10" fill="#1E3858"/>
  <path d="M804 794H924" stroke="#FFFFFF" stroke-width="10" stroke-linecap="round"/>
  <path d="M804 842H886" stroke="#D1A85A" stroke-width="10" stroke-linecap="round"/>
  <path d="M804 890H914" stroke="#7E91A7" stroke-width="10" stroke-linecap="round"/>
  <circle cx="600" cy="1266" r="152" fill="#10233A"/>
  <path d="M518 1260L574 1208L626 1238L690 1172" stroke="#D1A85A" stroke-width="18" stroke-linecap="round" stroke-linejoin="round"/>
  <circle cx="518" cy="1260" r="18" fill="#FFF8EB"/>
  <circle cx="574" cy="1208" r="18" fill="#FFF8EB"/>
  <circle cx="626" cy="1238" r="18" fill="#FFF8EB"/>
  <circle cx="690" cy="1172" r="18" fill="#FFF8EB"/>
</svg>
